<?xml version="1.0" encoding="UTF-8" standalone="no"?>
<svg width="389px" height="331px" viewBox="0 0 389 331" version="1.1" xmlns="http://www.w3.org/2000/svg" xmlns:xlink="http://www.w3.org/1999/xlink">
    <!-- Generator: sketchtool 41.2 (35397) - http://www.bohemiancoding.com/sketch -->
    <title>08C8EDAD-022C-4784-A104-C68098C6569F</title>
    <desc>Created with sketchtool.</desc>
    <defs></defs>
    <g id="Page-1" stroke="none" stroke-width="1" fill="none" fill-rule="evenodd">
        <g id="invite_1" transform="translate(-525.000000, -2215.000000)">
            <g id="cat-floatie" transform="translate(525.000000, 2215.000000)">
                <path d="M239.181293,300.03211 L239.181293,247.150453 L209.536182,247.150453 L209.536182,300.03211 C209.536182,300.03211 208.795054,313.986992 224.358738,313.986992 C239.922421,313.986992 239.181293,300.03211 239.181293,300.03211 Z" id="Fill-1" fill="#E69A54"></path>
                <path d="M239.181293,258.727815 C239.181293,258.727815 227.98137,270.653608 209.536182,271.305815 L209.536182,258.902128 L239.181293,245.192069 L239.181293,258.727815 Z" id="Fill-3" fill="#754554" opacity="0.457497668"></path>
                <path d="M179.89107,300.03211 L179.89107,247.150453 L150.245959,247.150453 L150.245959,300.03211 C150.245959,300.03211 149.504831,313.986992 165.068515,313.986992 C180.632198,313.986992 179.89107,300.03211 179.89107,300.03211" id="Fill-5" fill="#E69A54"></path>
                <path d="M150.245959,260.686395 C150.245959,260.686395 161.445882,272.612188 179.89107,273.264395 L179.89107,260.860708 L150.245959,247.150649 L150.245959,260.686395 Z" id="Fill-7" fill="#754554" opacity="0.457497668"></path>
                <path d="M192.665939,247.464609 C192.505856,247.464609 192.349725,247.454817 192.189641,247.454817 C192.031534,247.454817 191.873427,247.464609 191.715319,247.464609 L192.665939,247.464609 Z" id="Fill-9" fill="#E69A54"></path>
                <path d="M246.254815,85.9460107 L238.717051,26.3855964 C238.624163,24.8774899 237.282228,23.7238864 235.764398,23.8707799 C224.392533,24.9773775 216.777692,32.7862355 212.799318,38.0783183 C207.477032,35.2657976 201.235748,33.6656379 193.950956,33.6656379 L190.431093,33.6656379 C182.99017,33.6656379 176.638211,35.3382651 171.242801,38.2545905 C167.248616,32.8841645 159.432188,24.8402769 147.661103,23.9001586 C146.408103,23.800271 145.301352,24.6933834 145.226251,25.9390402 L137.50864,88.3903183 C128.508384,149.12588 132.581623,216.626378 132.581623,216.626378 C135.512536,247.327117 161.511299,268.458236 192.190037,268.675638 C222.868774,268.458236 248.869513,247.321241 251.79845,216.618543 C251.79845,216.618543 255.851925,146.468088 246.254815,85.9460107" id="Fill-11" fill="#E69A54"></path>
                <path d="M242.315691,49.2420818 C238.274075,50.695348 233.807544,48.6270877 232.3411,44.6217918 C230.874655,40.616496 232.961671,36.192064 237.003287,34.7387977 C238.013198,34.3745019 239.050776,34.2315256 240.060687,34.2824486 L242.315691,49.2420818 Z" id="Fill-13" fill="#FFFFFF" opacity="0.650000036"></path>
                <path d="M141.851163,49.2420818 C145.89278,50.695348 150.35931,48.6270877 151.825755,44.6217918 C153.2922,40.616496 151.205184,36.192064 147.163567,34.7387977 C146.153657,34.3745019 145.116078,34.2315256 144.106168,34.2824486 L141.851163,49.2420818 Z" id="Fill-15" fill="#FFFFFF" opacity="0.650000036"></path>
                <path d="M183.98842,78.6336527 C187.620934,77.8110491 193.48869,77.0942089 200.01852,78.6924101 C201.749794,79.1174219 202.447443,80.9506527 201.326858,82.1865166 L194.484766,89.7329249 C193.528217,90.7846822 191.729747,90.8414811 190.694144,89.8484811 L182.755183,82.245274 C181.472538,81.0172444 182.152399,79.0488716 183.98842,78.6336527" id="Fill-17" fill="#A85B22"></path>
                <path d="M188.758318,85.2201609 C188.758318,86.8634095 187.414407,88.1952438 185.756257,88.1952438 C184.098107,88.1952438 182.754195,86.8634095 182.754195,85.2201609 C182.754195,83.5769124 184.098107,82.2450781 185.756257,82.2450781 C187.414407,82.2450781 188.758318,83.5769124 188.758318,85.2201609" id="Fill-19" fill="#E69A54"></path>
                <path d="M201.4152,85.458716 C201.4152,87.1019645 200.071288,88.4337988 198.413138,88.4337988 C196.754988,88.4337988 195.411077,87.1019645 195.411077,85.458716 C195.411077,83.8154675 196.754988,82.4836331 198.413138,82.4836331 C200.071288,82.4836331 201.4152,83.8154675 201.4152,85.458716" id="Fill-21" fill="#E69A54"></path>
                <path d="M212.061748,57.1682047 L212.004434,57.1682047 C211.46094,57.1682047 211.043932,56.4161101 211.073577,55.875542 L211.445129,49.2026604 C211.474774,48.6620923 211.913522,48.1802817 212.488637,48.2155361 C213.032131,48.2449148 213.449139,48.6758024 213.419494,49.2144118 L213.047942,56.0008911 C213.018297,56.5218734 212.581525,57.1682047 212.061748,57.1682047" id="Fill-23" fill="#FFFFFF"></path>
                <path d="M217.562299,58.5864124 C217.447672,58.5864124 217.331067,58.5668266 217.218416,58.5256964 C216.706544,58.3376728 216.445667,57.7736018 216.635396,57.2663296 L218.842968,51.367087 C219.032697,50.8617734 219.601883,50.6012822 220.113755,50.7912645 C220.623651,50.9773296 220.886505,51.5414006 220.694799,52.0486728 L218.489203,57.9479154 C218.340978,58.3415899 217.963497,58.5864124 217.562299,58.5864124" id="Fill-25" fill="#FFFFFF"></path>
                <path d="M169.165074,57.1682047 C168.645296,57.1682047 168.208525,56.5062047 168.17888,55.9852225 L167.807328,49.3123408 C167.775706,48.7717728 168.192714,48.2449148 168.738184,48.2155361 C169.295512,48.1841988 169.750071,48.5641633 169.779716,49.1047314 L170.153244,55.8912107 C170.182889,56.4317787 169.765881,57.1682047 169.222388,57.1682047 L169.165074,57.1682047 Z" id="Fill-27" fill="#FFFFFF"></path>
                <path d="M163.663534,58.5864124 C163.262337,58.5864124 162.884856,58.3415899 162.73663,57.9479154 L160.531034,52.0486728 C160.339329,51.5414006 160.602182,50.9773296 161.112078,50.7912645 C161.62395,50.5993237 162.193136,50.8617734 162.382865,51.367087 L164.590438,57.2663296 C164.780166,57.7736018 164.519289,58.3376728 164.007417,58.5256964 C163.894766,58.5668266 163.778162,58.5864124 163.663534,58.5864124" id="Fill-29" fill="#FFFFFF"></path>
                <path d="M134.382069,114.816849 C137.496782,118.876985 144.317134,124.364926 159.05866,127.001175 C161.701028,127.473192 163.457994,129.980175 162.981696,132.602713 C162.556783,134.933423 160.507318,136.568837 158.198952,136.568837 C157.912382,136.568837 157.619884,136.543376 157.327385,136.490494 C146.22035,134.504494 138.605509,130.941837 133.393899,127.110855" id="Fill-31" fill="#E26E0E"></path>
                <path d="M249.278221,118.674468 C246.163508,122.734604 239.343156,128.222545 224.60163,130.858793 C221.959262,131.330811 220.202295,133.837793 220.678593,136.460332 C221.103507,138.791042 223.152972,140.426456 225.461338,140.426456 C225.747908,140.426456 226.040406,140.400995 226.332904,140.348113 C237.43994,138.362113 245.054781,134.799456 250.266391,130.968474" id="Fill-33" fill="#E26E0E"></path>
                <path d="M220.703298,83.0686609 C220.236881,83.0686609 219.776394,82.8512586 219.487848,82.443874 C219.017479,81.7779568 219.179539,80.8652586 219.849519,80.3991166 C220.515545,79.9349331 236.37568,69.1274893 256.255692,75.0228148 C257.040299,75.2558858 257.484976,76.0745722 257.251768,76.8521284 C257.016583,77.6296846 256.190473,78.0684065 255.405865,77.8392527 C236.934984,72.3591462 221.70135,82.6984893 221.551148,82.8042527 C221.292247,82.9824834 220.995796,83.0686609 220.703298,83.0686609" id="Fill-35" fill="#A85B22"></path>
                <path d="M252.43088,94.4482059 C252.343921,94.4482059 252.253009,94.4403716 252.164074,94.424703 L225.275957,89.5850521 C224.471587,89.4381586 223.937975,88.6743124 224.084224,87.8771704 C224.230473,87.0761112 224.99927,86.5570876 225.807593,86.6922296 L252.693733,91.5338391 C253.50008,91.678774 254.033692,92.4445787 253.887443,93.2417207 C253.757004,93.9507266 253.13248,94.4482059 252.43088,94.4482059" id="Fill-37" fill="#A85B22"></path>
                <path d="M227.88868,211.512134 C221.991279,211.512134 216.890343,207.111205 216.246056,201.180625 C215.55829,194.848536 220.117708,189.158862 226.503265,188.447897 C226.999327,188.393057 227.760218,188.336258 228.752341,188.267708 C264.530038,185.844944 282.668893,168.450796 282.668893,136.567075 C282.668893,112.114205 289.655258,93.8367373 303.432329,82.2399858 C322.41113,66.2658083 346.803128,70.0145302 347.828848,70.1810095 C354.192666,71.2151396 358.505041,77.1672639 357.461533,83.4738911 C356.416049,89.7805183 350.423784,94.0521811 344.046132,93.021968 C343.97696,93.0121751 329.02199,90.9321633 318.401134,100.010181 C310.189438,107.027773 306.025288,119.327654 306.025288,136.567075 C306.025288,180.840773 278.4415,208.102246 230.345271,211.359364 C229.807707,211.396578 229.388722,211.422039 229.0982,211.449459 C228.693051,211.490589 228.287901,211.512134 227.88868,211.512134" id="Fill-39" fill="#E69A54"></path>
                <path d="M228.750167,167.696939 C228.750167,190.984454 212.366302,209.863205 192.156241,209.863205 C171.944204,209.863205 155.560339,190.984454 155.560339,167.696939 C155.560339,144.409424 171.944204,125.530673 192.156241,125.530673 C212.366302,125.530673 228.750167,144.409424 228.750167,167.696939" id="Fill-41" fill="#FFFFFF" opacity="0.695895522"></path>
                <path d="M183.128712,109.162233 C182.854,109.162233 182.581265,109.048636 182.385608,108.829275 C182.025914,108.42189 182.067417,107.804937 182.476519,107.446517 L191.74951,99.3850024 L191.74951,86.5465112 C191.74951,86.0059432 192.190234,85.5672213 192.737681,85.5672213 C193.283151,85.5672213 193.725851,86.0059432 193.725851,86.5465112 L193.725851,100.272239 L183.780904,108.919369 C183.593152,109.081931 183.359944,109.162233 183.128712,109.162233" id="Fill-43" fill="#A85B22"></path>
                <path d="M202.346056,109.162233 C202.114825,109.162233 201.881616,109.081931 201.693864,108.919369 L191.748917,100.272239 L191.748917,86.5465112 C191.748917,86.0059432 192.191618,85.5672213 192.737088,85.5672213 C193.284534,85.5672213 193.725258,86.0059432 193.725258,86.5465112 L193.725258,99.3850024 L202.998249,107.446517 C203.407351,107.804937 203.448855,108.42189 203.089161,108.829275 C202.893503,109.048636 202.620768,109.162233 202.346056,109.162233" id="Fill-45" fill="#A85B22"></path>
                <path d="M173.352149,59.3488876 L155.25282,59.3488876 C151.734934,59.3488876 148.912719,62.1809941 148.902838,65.6692249 C148.883074,72.7064024 151.027404,83.1945976 163.830139,83.9036036 C177.040001,84.6321953 185.346561,73.127497 189.297267,65.7279822 C190.76964,62.9722604 188.789347,59.6485503 185.643012,59.5878343 L173.352149,59.3488876 Z" id="Fill-47" fill="#5B3442"></path>
                <path d="M210.95895,59.3488876 L229.058278,59.3488876 C232.576165,59.3488876 235.39838,62.1809941 235.408261,65.6692249 C235.428025,72.7064024 233.283695,83.1945976 220.480959,83.9036036 C207.271098,84.6321953 198.964537,73.127497 195.013832,65.7279822 C193.541458,62.9722604 195.521752,59.6485503 198.668086,59.5878343 L210.95895,59.3488876 Z" id="Fill-49" fill="#5B3442"></path>
                <path d="M205.123211,68.1861959 C192.002284,61.0158349 179.922889,67.8649888 179.412993,68.1587757 L177.401079,64.7861012 C177.988052,64.4433497 191.891609,56.4778053 207.032356,64.7567225 L205.123211,68.1861959 Z" id="Fill-51" fill="#5B3442"></path>
                <polygon id="Fill-53" fill="#5B3442" points="140.648453 68.4308225 153.70416 68.4308225 153.70416 64.5136627 140.648453 64.5136627"></polygon>
                <polygon id="Fill-55" fill="#5B3442" points="235.408064 67.6258462 243.789725 67.6258462 243.789725 63.7086864 235.408064 63.7086864"></polygon>
                <path d="M120.673181,176.641578 C117.969547,176.641578 116.240249,173.785968 117.528823,171.431755 C124.113991,159.415867 138.563018,130.064589 134.981888,105.223921 C130.602317,74.8463467 104.872337,55.0999444 73.8773846,55.8559562 C48.1908836,56.4827018 17.6366553,77.9252343 19.0062595,114.946311 C4.90111541,144.244708 34.6845708,152.609802 34.6845708,152.609802 C35.5502081,169.359578 48.9853726,172.352288 48.9853726,172.352288 C75.851749,178.365128 78.8854321,146.150406 78.8854321,146.150406 C61.5509472,153.450033 51.1514421,140.993465 51.1514421,140.993465 C52.4518743,137.987045 52.8846929,132.832063 52.8846929,132.832063 C54.6100384,121.542808 47.0011265,117.077246 43.8290995,115.721909 C43.2678188,113.824045 37.8743848,93.768187 57.8887878,85.5049385 C78.9091482,76.8245124 94.6961582,85.567613 101.465125,100.258921 C101.465125,100.258921 111.313231,121.958027 89.8560997,152.768447 C79.6581813,167.412749 65.6656887,183.565157 63.1478306,192.617714 C60.0588099,197.947009 58.6753714,204.11066 58.6753714,210.697364 C58.6753714,230.79827 74.0730423,247.093654 95.8127908,247.093654 L264.938152,247.150453 C291.618752,247.150453 307.700237,231.636542 307.700237,211.933228 C307.700237,192.231873 294.089178,176.641578 264.938152,176.641578 L120.673181,176.641578 Z" id="Fill-56" fill="#FFB5BE"></path>
                <path d="M97.7881434,245.191873 L262.962799,245.191873 L262.962799,244.745317 L265.336385,245.050856 C265.526113,245.088069 265.696079,245.135075 265.854186,245.185998 C289.740241,244.854998 305.722908,231.577785 305.722908,211.935187 C305.722908,191.366181 290.920116,178.966412 266.049844,178.607992 C265.844304,178.690252 265.607143,178.760761 265.336385,178.815601 L262.962799,179.301329 L262.962799,178.600157 L120.672193,178.600157 C118.695852,178.600157 116.911217,177.595406 115.901307,175.912986 C114.893373,174.236441 114.853846,172.21127 115.792608,170.497512 C123.658444,156.141122 136.35841,128.611323 133.026299,105.50008 C128.870055,76.6756604 104.60059,57.0722343 73.9258049,57.8145361 C59.9471467,58.155329 45.5791493,64.7028615 35.4938823,75.3281574 C28.479849,82.7198379 20.2681531,95.5798734 20.9816121,114.873844 L20.9993991,115.355654 L20.789907,115.790459 C16.7601482,124.159471 16.1119084,131.472808 18.8649511,137.528737 C23.2761437,147.233501 35.1065196,150.694311 35.2251,150.727607 L36.5828461,151.113447 L36.6579471,152.511873 C37.4326726,167.489134 48.9369523,170.331033 49.4270848,170.444631 C55.9826071,171.913566 61.5539117,171.045915 65.9730097,167.873015 C72.708379,163.03924 75.4041078,153.947512 76.3962309,149.135282 C59.8364716,154.176666 49.7334176,142.368388 49.6286715,142.243039 L48.859875,141.320548 L49.3341967,140.219826 C50.298651,137.996838 50.8026179,134.015045 50.9152694,132.669501 C52.3856669,123.021536 46.6147518,119.045619 43.0474568,117.519885 L42.1936775,117.157548 L41.9328006,116.274228 C41.2232942,113.874968 35.6223445,92.5773704 57.1288847,83.6971692 C81.2382658,73.7417077 97.0489919,85.9573704 103.264584,99.4461101 C103.689497,100.382311 113.320205,122.52014 91.4836163,153.880921 C88.378785,158.33669 84.9182123,162.945228 81.570291,167.399039 C73.9297576,177.571903 66.7121611,187.176779 65.0540112,193.136737 L64.8623062,193.591128 C62.0697367,198.411193 60.6527003,204.167459 60.6527003,210.699323 C60.6527003,230.330169 75.7677545,245.135075 95.8118026,245.135075 L97.7881434,245.191873 Z M264.856134,249.177583 C264.626878,249.177583 264.381812,249.163873 264.122912,249.138412 L263.836342,249.109033 L93.8354618,249.109033 L93.8354618,249.007187 C72.528532,248.06511 56.7000188,231.912702 56.7000188,210.699323 C56.7000188,203.568134 58.2514463,197.230169 61.3127981,191.853867 C63.2772809,185.18882 70.6253158,175.407672 78.4002404,165.060495 C81.7264219,160.632146 85.1652549,156.054944 88.2285831,151.654015 C108.719284,122.232228 99.7546024,101.265631 99.6617144,101.056063 C93.9224208,88.6053704 80.1334913,78.4481751 58.6506671,87.3127077 C41.8478179,94.2519562 44.4783275,110.151708 45.502072,114.335234 C49.0436747,116.099915 56.6427049,121.329323 54.8402821,133.123891 C54.8363294,133.206151 54.4805881,137.328962 53.4291748,140.537116 C55.970749,143.010802 64.733844,149.981388 78.1116947,144.348512 L81.1611885,143.061725 L80.8528793,146.330595 C80.7876601,147.018057 79.1453209,163.239015 68.3070681,171.034163 C62.9254922,174.908234 56.2790582,175.993288 48.5495895,174.263862 C48.4053166,174.232524 34.3831788,170.910773 32.8080352,154.057193 C29.2367875,152.776282 19.554694,148.547708 15.2759163,139.168069 C12.0584335,132.11914 12.6434304,123.832388 17.0150962,114.538927 C16.4044069,94.1579444 25.1418094,80.5183941 32.6143538,72.644903 C43.4091271,61.2733882 58.8166798,54.2636308 73.8289642,53.8993349 C106.507759,53.0728142 132.492687,74.0903349 136.939454,104.945802 C140.431648,129.173436 127.366059,157.586554 119.267015,172.365998 C118.879652,173.071086 119.158316,173.680205 119.29666,173.909359 C119.43698,174.14243 119.850035,174.682998 120.672193,174.682998 L264.061645,174.675163 C264.607115,174.622282 265.059697,174.628157 265.445083,174.682998 L266.915481,174.710418 C287.949676,175.294075 309.67559,185.304376 309.67559,211.935187 C309.67559,233.608832 291.639504,248.811329 265.709913,249.105116 C265.452989,249.152122 265.168396,249.177583 264.856134,249.177583 L264.856134,249.177583 Z" id="Fill-57" fill="#FFB5BE"></path>
                <path d="M262.380372,181.592476 C273.157358,184.060286 297.847783,192.903275 289.017493,221.204754 C288.762545,222.021482 287.543143,221.845209 287.543143,220.991269 C287.535237,212.414647 284.286133,195.707961 261.844784,182.963482 C261.087845,182.532594 261.530545,181.398576 262.380372,181.592476" id="Fill-58" fill="#FFFFFF" opacity="0.446420243"></path>
                <path d="M54.2005406,140.993661 C54.2005406,140.993661 62.9636356,152.655046 81.4938066,144.850105 C81.4938066,144.850105 78.2506314,179.289773 49.528471,172.863673 C49.528471,172.863673 35.1664027,171.619975 34.2394989,153.714637 C34.2394989,153.714637 50.2280957,155.097395 54.2005406,140.993661" id="Fill-59" fill="#FFD55F"></path>
                <path d="M35.2998057,154.722327 C36.6456937,170.522191 49.0768772,171.836398 49.6164182,171.887321 C57.0988444,173.552114 63.3598919,172.564989 68.3580577,168.970995 C76.8662047,162.856309 79.5639099,150.764037 80.2832979,146.386611 C66.0971239,151.684569 57.6107166,145.68348 54.6244657,142.872918 C50.537393,153.797877 38.9876576,154.716451 35.2998057,154.722327 M56.3419058,174.641084 C54.1106171,174.641084 51.7647006,174.366883 49.3100854,173.816522 C49.2191737,173.816522 34.2108419,172.265327 33.2523166,153.764581 C33.2384823,153.480587 33.3491573,153.208344 33.5546968,153.010528 C33.7582599,152.810753 34.0349476,152.712824 34.3254697,152.738285 C34.9460407,152.793125 49.5492226,153.868386 53.2489325,140.728273 C53.3497259,140.371812 53.6481534,140.101528 54.0177291,140.031019 C54.3873048,139.958551 54.7667623,140.107404 54.9920651,140.405108 C55.3339721,140.855581 63.5614787,151.339859 81.107432,143.950137 C81.4275992,143.813037 81.7971749,143.854167 82.075839,144.061776 C82.3584557,144.26351 82.510634,144.598427 82.4790125,144.943137 C82.4098406,145.65606 80.7042585,162.511599 69.5260751,170.551569 C65.7394062,173.273995 61.3242609,174.641084 56.3419058,174.641084" id="Fill-60" fill="#FFD55F"></path>
                <path d="M50.2288862,174.267191 C80.9293637,180.30941 83.4136241,141.672505 83.4136241,141.672505 C75.1446143,147.262292 67.5021045,146.978298 62.1521501,145.135274 C62.1521501,145.135274 68.5574705,165.543676 50.2288862,174.267191" id="Fill-61" fill="#000000"></path>
                <path d="M29.9324594,136.546118 C27.4225066,136.546118 25.6279892,135.274999 25.0686848,132.975627 C24.3631311,130.07497 26.1556722,127.740343 29.7466834,126.880526 C30.2704137,126.76497 30.8119311,127.078343 30.9384169,127.605201 C31.066879,128.1301 30.7407828,128.658917 30.2111235,128.786224 C28.4304404,129.211236 26.4264309,130.204236 26.9877117,132.51536 C27.5529451,134.826485 29.7941156,134.802982 31.5728223,134.37797 C32.0945762,134.260455 32.6360936,134.571869 32.7645557,135.100686 C32.8930179,135.625585 32.5669217,136.154402 32.035286,136.281709 C31.2921819,136.45994 30.5886046,136.546118 29.9324594,136.546118" id="Fill-62" fill="#000000"></path>
                <path d="M69.5725191,226.059094 C72.1575728,231.738976 79.0233807,241.09707 96.4309902,242.466118 C97.4152079,242.544461 97.7294461,241.177372 96.7926605,240.862041 C90.6027612,238.776153 80.9424076,234.29884 71.2701958,224.928993 C70.4500144,224.13381 69.1001737,225.023005 69.5725191,226.059094" id="Fill-63" fill="#FFFFFF" opacity="0.446420243"></path>
                <path d="M108.035273,241.139767 C108.035273,242.569531 106.867255,243.727051 105.424526,243.727051 C103.981798,243.727051 102.81378,242.569531 102.81378,241.139767 C102.81378,239.710004 103.981798,238.552483 105.424526,238.552483 C106.867255,238.552483 108.035273,239.710004 108.035273,241.139767" id="Fill-64" fill="#FFFFFF" opacity="0.446420243"></path>
                <path d="M165.068515,314.966282 C164.523044,314.966282 164.080344,314.52756 164.080344,313.986992 L164.080344,304.92856 C164.080344,304.387992 164.523044,303.94927 165.068515,303.94927 C165.613985,303.94927 166.056685,304.387992 166.056685,304.92856 L166.056685,313.986992 C166.056685,314.52756 165.613985,314.966282 165.068515,314.966282" id="Fill-65" fill="#A85B22"></path>
                <path d="M156.834091,311.7358 C156.288621,311.7358 155.84592,311.297078 155.84592,310.75651 L155.84592,304.320617 C155.84592,303.780049 156.288621,303.341327 156.834091,303.341327 C157.379561,303.341327 157.822261,303.780049 157.822261,304.320617 L157.822261,310.75651 C157.822261,311.297078 157.379561,311.7358 156.834091,311.7358" id="Fill-66" fill="#A85B22"></path>
                <path d="M171.985707,311.7358 C171.440237,311.7358 170.997537,311.297078 170.997537,310.75651 L170.997537,304.320617 C170.997537,303.780049 171.440237,303.341327 171.985707,303.341327 C172.531177,303.341327 172.973878,303.780049 172.973878,304.320617 L172.973878,310.75651 C172.973878,311.297078 172.531177,311.7358 171.985707,311.7358" id="Fill-67" fill="#A85B22"></path>
                <path d="M225.017847,315.006433 C224.472377,315.006433 224.029677,314.567711 224.029677,314.027143 L224.029677,304.968711 C224.029677,304.428143 224.472377,303.989421 225.017847,303.989421 C225.563317,303.989421 226.006018,304.428143 226.006018,304.968711 L226.006018,314.027143 C226.006018,314.567711 225.563317,315.006433 225.017847,315.006433" id="Fill-68" fill="#A85B22"></path>
                <path d="M216.782435,311.775951 C216.236965,311.775951 215.794265,311.337229 215.794265,310.796661 L215.794265,304.360767 C215.794265,303.820199 216.236965,303.381478 216.782435,303.381478 C217.327905,303.381478 217.770606,303.820199 217.770606,304.360767 L217.770606,310.796661 C217.770606,311.337229 217.327905,311.775951 216.782435,311.775951" id="Fill-69" fill="#A85B22"></path>
                <path d="M231.93504,311.775951 C231.38957,311.775951 230.94687,311.337229 230.94687,310.796661 L230.94687,304.360767 C230.94687,303.820199 231.38957,303.381478 231.93504,303.381478 C232.48051,303.381478 232.92321,303.820199 232.92321,304.360767 L232.92321,310.796661 C232.92321,311.337229 232.48051,311.775951 231.93504,311.775951" id="Fill-70" fill="#A85B22"></path>
                <path d="M388.12703,327.37604 L388.12703,197.886489" id="Fill-71" fill="#648CCA"></path>
                <path d="M388.12703,200.873324 C375.223501,200.873324 375.223501,193.039004 362.319972,193.039004 C349.41249,193.039004 349.41249,200.873324 336.506985,200.873324 C323.603456,200.873324 323.603456,193.039004 310.699927,193.039004 C297.794422,193.039004 297.794422,200.873324 284.890893,200.873324 C271.985388,200.873324 271.985388,193.039004 259.079883,193.039004 C246.172401,193.039004 246.172401,200.873324 233.26492,200.873324 C220.359414,200.873324 220.359414,193.039004 207.453909,193.039004 C194.546428,193.039004 194.546428,200.873324 181.638946,200.873324 C168.733441,200.873324 168.733441,193.039004 155.825959,193.039004 C142.92243,193.039004 142.92243,200.873324 130.018902,200.873324 C117.113396,200.873324 117.113396,193.039004 104.205915,193.039004 C91.2964569,193.039004 91.2964569,200.873324 78.3850226,200.873324 C65.477541,200.873324 65.477541,193.039004 52.5720358,193.039004 C39.6566489,193.039004 39.6566489,200.873324 26.741262,200.873324 C13.8238987,200.873324 13.8238987,193.039004 0.908511789,193.039004 L0.908511789,330.116093 L388.12703,330.116093 L388.12703,200.873324 Z" id="Fill-72" fill="#648CCA" opacity="0.289937034"></path>
                <path d="M160.400793,88.9453799 C160.108294,88.9453799 159.811843,88.8592024 159.552943,88.679013 C159.400764,88.5752083 144.163177,78.2299893 125.696249,83.714013 C124.919547,83.9392497 124.087508,83.504445 123.852323,82.7268888 C123.617139,81.9512911 124.063792,81.1326047 124.848399,80.8995337 C144.726434,75.0002911 160.588545,85.8116521 161.254572,86.2738769 C161.924552,86.7400189 162.086612,87.6546757 161.616242,88.3186343 C161.327697,88.7279775 160.867209,88.9453799 160.400793,88.9453799" id="Fill-73" fill="#A85B22"></path>
                <path d="M129.709604,102.972925 C129.061364,102.972925 128.468462,102.549872 128.282686,101.901582 C128.063312,101.120108 128.521823,100.309256 129.310383,100.089895 L155.619432,92.7667651 C156.39811,92.5415284 157.22422,93.0017947 157.447547,93.783268 C157.666921,94.5647414 157.20841,95.3755935 156.41985,95.5929959 L130.110801,102.918085 C129.978387,102.955298 129.842019,102.972925 129.709604,102.972925" id="Fill-74" fill="#A85B22"></path>
                <path d="M217.510124,79.513055 C211.618652,79.513055 207.573083,75.3197355 207.511816,75.2551024 C207.233152,74.9593568 207.248963,74.4951734 207.54739,74.2190136 C207.845818,73.9408953 208.316187,73.9565639 208.594851,74.2523095 C208.9249,74.6009367 216.794689,82.6957473 226.504451,74.203345 C226.810784,73.9350195 227.2772,73.9624396 227.549935,74.2679781 C227.820694,74.5735166 227.791049,75.0357414 227.484716,75.3060254 C223.877894,78.4593391 220.460801,79.513055 217.510124,79.513055" id="Fill-75" fill="#FFFFFF" opacity="0.51614972"></path>
                <path d="M177.828166,174.707676 L195.069763,187.125072 C200.548179,191.539711 201.380219,199.518966 196.925547,204.948149 C192.472851,210.377333 184.421239,211.199936 178.942822,206.787256 L139.289521,174.266995" id="Fill-76" fill="#754554" opacity="0.4"></path>
                <path d="M242.013531,187.220801 L258.426068,199.041109 C263.641056,203.243471 264.433087,210.839044 260.192617,216.007166 C255.954028,221.175288 248.289577,221.958337 243.074589,217.757839 L211.462158,195.039398 L223.746117,175.380954" id="Fill-76" fill="#754554" opacity="0.400000006" transform="translate(237.191008, 197.920373) rotate(58.000000) translate(-237.191008, -197.920373) "></path>
                <path id="Fill-78" fill="#E69A54"></path>
                <path d="M136.672648,135.571528 L197.211918,184.99825 C202.690335,189.410931 203.522375,197.390185 199.069679,202.819369 C194.615007,208.248552 186.563394,209.073114 181.084978,204.660434 L132.846452,165.249889 L132.810878,144.966836" id="Fill-84" fill="#E69A54"></path>
                <path d="M198.834297,202.131711 C198.642592,202.131711 198.446934,202.076871 198.276968,201.959356 L190.739205,196.83767 C190.288599,196.532131 190.173971,195.923013 190.48228,195.476457 C190.792566,195.031859 191.405232,194.914344 191.855837,195.2238 L199.393601,200.345486 C199.844207,200.651025 199.958834,201.260143 199.650525,201.706699 C199.45882,201.982859 199.148535,202.131711 198.834297,202.131711" id="Fill-85" fill="#A85B22"></path>
                <path d="M191.489621,207.035799 C191.297916,207.035799 191.102259,206.980959 190.932293,206.863444 L185.574433,203.224403 C185.125804,202.916906 185.011176,202.309746 185.317509,201.861231 C185.627795,201.418592 186.242437,201.299119 186.693042,201.608575 L192.048926,205.249575 C192.499532,205.555113 192.614159,206.164231 192.30585,206.610788 C192.114145,206.886947 191.80386,207.035799 191.489621,207.035799" id="Fill-86" fill="#A85B22"></path>
                <path d="M200.058837,194.651307 C199.867132,194.651307 199.671475,194.596467 199.501509,194.478952 L194.143649,190.839911 C193.69502,190.532414 193.580392,189.925254 193.886725,189.476739 C194.197011,189.0341 194.811653,188.916585 195.262258,189.224082 L200.618142,192.865082 C201.068747,193.170621 201.183375,193.779739 200.875066,194.226295 C200.683361,194.502455 200.373075,194.651307 200.058837,194.651307" id="Fill-87" fill="#A85B22"></path>
                <path d="M288.091775,104.053278 C288.091775,104.053278 290.512792,97.948384 292.864638,94.4816976 L312.594448,106.916721 C312.594448,106.916721 309.922435,111.758331 309.033082,114.762792 L288.091775,104.053278 Z" id="Fill-88" fill="#E26E0E"></path>
                <path d="M316.970659,101.329872 L303.108605,83.2012568 C303.108605,83.2012568 305.869553,79.429032 311.395402,76.7731976 L328.678502,94.4807183 C328.678502,94.4807183 318.976645,98.053168 316.970659,101.329872" id="Fill-89" fill="#E26E0E"></path>
                <path d="M338.38194,68.8748325 C348.394082,66.6518444 355.807336,72.4374893 357.376551,79.380655 C358.945765,86.3238207 357.588019,96.8100574 338.134897,94.0190811" id="Fill-90" fill="#FFFFFF" opacity="0.75"></path>
                <path d="M250.698024,136.747264 L252.19609,214.355992 C251.844302,221.344205 245.842155,226.726382 238.790571,226.377755 C231.738987,226.029128 226.308003,220.080921 226.661768,213.092708 L230.213252,151.234879 L246.69791,139.215075" id="Fill-91" fill="#E69A54"></path>
                <path d="M240.00938,226.18366 C239.477744,226.18366 239.038997,225.764524 239.023186,225.235707 L238.73464,216.183151 C238.716853,215.642583 239.145719,215.190151 239.691189,215.172524 C240.212943,215.160772 240.693194,215.579908 240.709005,216.120476 L240.997551,225.173033 C241.015338,225.713601 240.586472,226.166033 240.041002,226.18366 L240.00938,226.18366 Z" id="Fill-92" fill="#A85B22"></path>
                <path d="M231.675546,223.213278 C231.143911,223.213278 230.705163,222.794141 230.689352,222.265325 L230.483813,215.829431 C230.468002,215.288863 230.894892,214.83839 231.440362,214.820763 C231.993737,214.818804 232.442367,215.230106 232.458177,215.768715 L232.663717,222.20265 C232.681504,222.745177 232.252638,223.19565 231.707168,223.213278 L231.675546,223.213278 Z" id="Fill-93" fill="#A85B22"></path>
                <path d="M246.820443,222.740868 C246.288808,222.740868 245.85006,222.321732 245.834249,221.792915 L245.62871,215.357022 C245.612899,214.816454 246.039789,214.36598 246.585259,214.348353 C247.10306,214.330726 247.587264,214.755738 247.603074,215.296306 L247.808614,221.730241 C247.826401,222.272767 247.397535,222.723241 246.852065,222.740868 L246.820443,222.740868 Z" id="Fill-94" fill="#A85B22"></path>
                <path d="M251.32986,146.276343 C247.643985,148.052775 243.110259,149.547171 237.533025,150.546047 C234.983546,151.000437 233.274011,153.56226 233.716711,156.186757 C234.111979,158.531177 236.094249,160.25081 238.32949,160.25081 C238.596297,160.25081 238.867055,160.227307 239.137814,160.178343 C243.041087,159.481088 248.406852,158.556638 251.525518,157.467668" id="Fill-95" fill="#E26E0E"></path>
                <path d="M131.835356,150.193502 C135.521232,151.969934 140.054958,153.464331 145.632191,154.463207 C148.181671,154.917597 149.891206,157.47942 149.448505,160.103917 C149.053237,162.448337 147.070967,164.16797 144.835726,164.16797 C144.56892,164.16797 144.298161,164.144467 144.027403,164.095502 C140.12413,163.398248 134.758364,162.473798 131.639699,161.384828" id="Fill-96" fill="#E26E0E"></path>
                <g id="Group-100" opacity="0.450000018" transform="translate(27.577457, 57.874077)" fill="#FFFFFF">
                    <path d="M66.540819,4.25540651 C19.059232,-9.70535089 1.3314553,28.0129805 1.3314553,28.0129805 C1.27611776,32.6841935 16.9346657,-3.21657574 66.540819,4.25540651" id="Fill-98"></path>
                    <path d="M46.6094223,2.16971479 C26.5772323,2.16971479 14.1717413,12.5874012 7.73282305,20.3002888 C15.0176151,13.0319988 28.361868,3.08633018 50.4198073,2.29114675 C49.1193751,2.21084497 47.848588,2.16971479 46.6094223,2.16971479 M1.53699474,29.427271 C1.40062723,29.427271 1.26228337,29.3998509 1.11405782,29.3450107 C0.821559382,29.2372888 0.331426871,28.9199988 0.343284916,28.0014249 L0.436172932,27.599916 C0.617996282,27.2140757 19.0691137,-10.7275337 66.8214594,3.31548402 L66.3925934,5.22314083 C27.6958412,-0.60363432 10.0708342,20.1886497 4.27817939,27.0221349 C2.86707208,28.6869278 2.24057205,29.427271 1.53699474,29.427271" id="Fill-99"></path>
                </g>
                <path d="M314.322758,40.8920142 C314.322758,42.7037006 312.840502,44.1745941 311.01041,44.1745941 C309.182295,44.1745941 307.70004,42.7037006 307.70004,40.8920142 C307.70004,39.0803278 309.182295,37.6094343 311.01041,37.6094343 C312.840502,37.6094343 314.322758,39.0803278 314.322758,40.8920142" id="Fill-101" fill="#648CCA"></path>
                <path d="M125.305526,46.7622698 C123.40231,46.2079917 121.933889,44.8644059 120.089963,43.8753231 C119.641334,45.8554473 119.742127,47.857116 119.03855,49.9292935 C118.220345,47.8610331 118.605731,45.9044118 118.36857,43.8341929 C116.55429,44.5020686 115.115513,45.9044118 113.036403,46.3431337 C113.787412,44.6802994 115.107608,43.7989385 116.301318,42.854903 C117.27763,42.0812639 117.145215,41.6092462 116.244004,40.943329 C114.55028,39.693755 112.985018,38.2933704 111.609485,36.6697077 C114.032479,37.5079799 115.996961,39.1316426 118.364618,40.4732698 C118.672927,38.0407136 118.73617,35.7315479 119.427889,33.2265243 C120.218425,35.1087195 119.880471,36.8322698 120.052413,38.4813941 C120.190757,39.7956012 120.591954,39.9209503 121.595935,39.2844118 C121.902268,39.0905124 122.224411,38.9142402 122.55446,38.7575538 C122.8351,38.6243704 123.200724,38.5186071 123.410216,38.7712639 C123.730383,39.1551456 123.301517,39.3960509 123.105859,39.6722107 C122.433903,40.6221219 120.643339,41.1137254 120.947695,42.2457846 C121.206596,43.2113645 122.67897,43.8381101 123.574252,44.6567964 C124.242255,45.2678734 124.843063,45.9494592 125.475492,46.5977491 C125.418178,46.6525893 125.360864,46.7074296 125.305526,46.7622698" id="Fill-102" fill="#E85540"></path>
                <path d="M82.3817765,23.4859189 C79.7690541,23.4859189 77.6425114,25.5933509 77.6425114,28.1825935 C77.6425114,30.7737947 79.7690541,32.8812266 82.3817765,32.8812266 C84.9964754,32.8812266 87.1230181,30.7737947 87.1230181,28.1825935 C87.1230181,25.5933509 84.9964754,23.4859189 82.3817765,23.4859189 M82.3817765,34.8398065 C78.6781139,34.8398065 75.6661706,31.8529722 75.6661706,28.1825935 C75.6661706,24.5122148 78.6781139,21.5273391 82.3817765,21.5273391 C86.0854391,21.5273391 89.0993588,24.5122148 89.0993588,28.1825935 C89.0993588,31.8529722 86.0854391,34.8398065 82.3817765,34.8398065" id="Fill-103" fill="#648CCA"></path>
                <path d="M263.823101,13.8920112 C265.216421,11.9275556 267.360751,10.7739521 269.236298,9.0484432 C267.10185,7.75773905 264.726288,7.08986331 262.583935,5.47011775 C265.321167,5.34281006 267.451662,6.55125385 269.959639,7.09182189 C269.890467,4.75131893 268.81929,2.55379231 269.12167,-0.000195857989 C270.767962,1.50986923 271.279834,3.36856154 271.912263,5.10582189 C272.432041,6.52970947 273.032849,6.56300533 274.165292,5.79132485 C276.287882,4.34001716 278.534981,3.09436036 280.967857,2.15620059 C279.040925,4.60246686 276.376817,6.21829527 273.882675,8.40407041 C276.598167,9.71240178 279.27018,10.6897331 281.920453,12.4642065 C279.414453,12.6326444 277.534953,11.5691355 275.544778,11.1206207 C273.9558,10.7622006 273.65342,11.1735024 274.001256,12.5719284 C274.107978,13.0008574 274.187032,13.4395793 274.240393,13.8783012 C274.285849,14.2523899 274.266085,14.7106976 273.89058,14.853674 C273.315465,15.0710763 273.202814,14.4835024 272.957748,14.1525024 C272.11385,13.0086917 272.240336,10.7661178 270.80156,10.6681888 C269.574252,10.587887 268.265915,12.0294018 266.957577,12.7344905 C265.983241,13.2593899 264.953568,13.6824432 263.94761,14.1505438 C263.906107,14.0643663 263.864604,13.9781888 263.823101,13.8920112" id="Fill-104" fill="#E85540"></path>
                <path d="M347.99328,143.264243 C347.99328,144.831107 346.710635,146.102225 345.129562,146.102225 C343.546513,146.102225 342.263868,144.831107 342.263868,143.264243 C342.263868,141.697379 343.546513,140.42626 345.129562,140.42626 C346.710635,140.42626 347.99328,141.697379 347.99328,143.264243" id="Fill-105" fill="#648CCA"></path>
                <path d="M119.563268,5.53122544 C119.563268,7.09808935 118.280623,8.36920769 116.699551,8.36920769 C115.116502,8.36920769 113.833856,7.09808935 113.833856,5.53122544 C113.833856,3.96436154 115.116502,2.6932432 116.699551,2.6932432 C118.280623,2.6932432 119.563268,3.96436154 119.563268,5.53122544" id="Fill-106" fill="#648CCA"></path>
                <path d="M376.530653,118.915765 C374.807283,118.41241 373.477206,117.196132 371.809174,116.301061 C371.402048,118.09512 371.49296,119.906807 370.856578,121.783126 C370.11545,119.910724 370.463286,118.138209 370.247865,116.263848 C368.605526,116.869049 367.305094,118.138209 365.421641,118.535801 C366.101502,117.029653 367.295212,116.232511 368.376271,115.376611 C369.261671,114.677398 369.141114,114.250428 368.324886,113.647185 C366.791245,112.515126 365.374209,111.247925 364.129114,109.777031 C366.322852,110.535002 368.101559,112.005895 370.245889,113.220215 C370.524553,111.018771 370.581867,108.927008 371.208367,106.658972 C371.923802,108.362937 371.617469,109.923925 371.7736,111.416363 C371.900086,112.607179 372.261756,112.720777 373.170873,112.144954 C373.449537,111.968682 373.742036,111.810037 374.038487,111.667061 C374.293435,111.547588 374.623484,111.451617 374.815189,111.678812 C375.105711,112.02744 374.716372,112.244842 374.540477,112.49554 C373.929788,113.355357 372.309189,113.801913 372.5839,114.82625 C372.819085,115.699777 374.153115,116.267765 374.963414,117.010067 C375.566198,117.562386 376.111668,118.179339 376.684807,118.766913 C376.633422,118.815878 376.582037,118.866801 376.530653,118.915765" id="Fill-107" fill="#E85540"></path>
                <path d="M286.004561,64.9852888 C283.389862,64.9852888 281.26332,67.0927207 281.26332,69.6839219 C281.26332,72.2751231 283.389862,74.382555 286.004561,74.382555 C288.61926,74.382555 290.745803,72.2751231 290.745803,69.6839219 C290.745803,67.0927207 288.61926,64.9852888 286.004561,64.9852888 M286.004561,76.3411349 C282.300899,76.3411349 279.286979,73.3543006 279.286979,69.6839219 C279.286979,66.0135432 282.300899,63.0267089 286.004561,63.0267089 C289.708224,63.0267089 292.722144,66.0135432 292.722144,69.6839219 C292.722144,73.3543006 289.708224,76.3411349 286.004561,76.3411349" id="Fill-108" fill="#648CCA"></path>
                <path d="M66.5352786,221.694595 C62.2999804,221.694595 58.8552184,225.108399 58.8552184,229.307595 C58.8552184,233.502873 62.2999804,236.916678 66.5352786,236.916678 C70.7705769,236.916678 74.2153389,233.502873 74.2153389,229.307595 C74.2153389,225.108399 70.7705769,221.694595 66.5352786,221.694595 M66.5352786,238.875257 C61.2110166,238.875257 56.8788776,234.584009 56.8788776,229.307595 C56.8788776,224.029222 61.2110166,219.736015 66.5352786,219.736015 C71.8595407,219.736015 76.1916796,224.029222 76.1916796,229.307595 C76.1916796,234.584009 71.8595407,238.875257 66.5352786,238.875257" id="Fill-109" fill="#648CCA"></path>
                <path d="M105.424131,293.733709 C103.578229,293.733709 102.078186,295.22223 102.078186,297.049585 C102.078186,298.878898 103.578229,300.367419 105.424131,300.367419 C107.270033,300.367419 108.770076,298.878898 108.770076,297.049585 C108.770076,295.22223 107.270033,293.733709 105.424131,293.733709 M105.424131,302.325999 C102.489265,302.325999 100.101846,299.960034 100.101846,297.049585 C100.101846,294.141093 102.489265,291.775129 105.424131,291.775129 C108.358997,291.775129 110.746417,294.141093 110.746417,297.049585 C110.746417,299.960034 108.358997,302.325999 105.424131,302.325999" id="Fill-110" fill="#648CCA"></path>
                <path d="M282.962973,222.191878 C280.168427,222.191878 277.897611,224.444245 277.897611,227.213677 C277.897611,229.983109 280.168427,232.235476 282.962973,232.235476 C285.757519,232.235476 288.028334,229.983109 288.028334,227.213677 C288.028334,224.444245 285.757519,222.191878 282.962973,222.191878 M282.962973,234.194056 C279.079463,234.194056 275.921271,231.062286 275.921271,227.213677 C275.921271,223.365067 279.079463,220.233298 282.962973,220.233298 C286.846482,220.233298 290.004675,223.365067 290.004675,227.213677 C290.004675,231.062286 286.846482,234.194056 282.962973,234.194056" id="Fill-111" fill="#648CCA"></path>
            </g>
        </g>
    </g>
</svg>